<?xml version="1.0" standalone="no"?>
<!DOCTYPE svg PUBLIC "-//W3C//DTD SVG 20010904//EN"
 "http://www.w3.org/TR/2001/REC-SVG-20010904/DTD/svg10.dtd">
<svg version="1.0" xmlns="http://www.w3.org/2000/svg"
 width="128.000000pt" height="128.000000pt" viewBox="0 0 128.000000 128.000000"
 preserveAspectRatio="xMidYMid meet">
<metadata>
Created by potrace 1.14, written by Peter Selinger 2001-2017
</metadata>
<g transform="translate(0.000000,128.000000) scale(0.100000,-0.100000)"
fill="#000000" stroke="none">
<path d="M574 1268 c-8 -13 -12 -150 -6 -185 5 -27 27 -36 53 -23 17 9 19 22
19 105 0 83 -2 96 -19 105 -25 13 -38 13 -47 -2z"/>
<path d="M176 1128 c-15 -22 -14 -25 51 -90 37 -38 75 -68 83 -68 19 0 40 19
40 36 0 18 -126 144 -144 144 -8 0 -22 -10 -30 -22z"/>
<path d="M923 1088 c-63 -64 -78 -100 -47 -112 27 -10 30 -8 98 58 57 56 65
68 57 88 -15 41 -42 33 -108 -34z"/>
<path d="M537 969 c-166 -38 -267 -210 -219 -374 15 -51 66 -135 82 -135 6 0
26 25 47 56 38 58 75 84 116 84 20 0 36 17 81 84 30 46 67 94 82 105 38 30 94
28 133 -5 l31 -25 -16 37 c-54 129 -201 204 -337 173z"/>
<path d="M63 754 c-4 -1 -20 -5 -35 -8 -18 -4 -28 -13 -28 -25 0 -39 34 -47
186 -42 24 1 33 7 38 23 3 13 0 28 -7 35 -10 10 -128 23 -154 17z"/>
<path d="M1030 750 c-38 -4 -46 -9 -48 -29 -2 -13 1 -28 6 -33 11 -11 184 -14
200 -4 16 10 15 56 0 61 -22 7 -111 10 -158 5z"/>
<path d="M767 727 c-8 -7 -37 -46 -65 -88 l-50 -77 186 -281 186 -281 117 0
c137 0 154 8 126 63 -37 71 -449 662 -466 669 -11 3 -26 1 -34 -5z"/>
<path d="M523 493 c-15 -22 -55 -80 -88 -131 -33 -50 -63 -92 -66 -92 -3 0
-20 20 -38 45 -34 48 -65 70 -82 60 -10 -7 -201 -258 -233 -307 -14 -21 -15
-31 -6 -47 11 -21 16 -21 465 -21 250 0 455 3 454 8 -2 21 -346 517 -361 520
-10 2 -28 -12 -45 -35z"/>
</g>
</svg>
